<svg xmlns="http://www.w3.org/2000/svg" xmlns:xlink="http://www.w3.org/1999/xlink" width="500" zoomAndPan="magnify" viewBox="0 0 375 374.999991" height="500" preserveAspectRatio="xMidYMid meet" version="1.0"><defs><g/><clipPath id="4a10d3f962"><path d="M 146.578125 100 L 228.328125 100 L 228.328125 187.554688 L 146.578125 187.554688 Z M 146.578125 100 " clip-rule="nonzero"/></clipPath><clipPath id="80d2740473"><path d="M 164 57.054688 L 222 57.054688 L 222 120 L 164 120 Z M 164 57.054688 " clip-rule="nonzero"/></clipPath></defs><g clip-path="url(#4a10d3f962)"><path fill="#404040" d="M 221.195312 103.277344 C 220.863281 106.34375 220.515625 109.707031 220.121094 113.351562 C 220.804688 114.363281 221.132812 115.609375 221 116.871094 C 220.855469 118.210938 220.214844 119.429688 219.207031 120.285156 C 218.296875 121.039062 217.1875 121.460938 216.03125 121.460938 C 215.855469 121.460938 215.671875 121.453125 215.496094 121.429688 C 212.765625 121.132812 210.796875 118.605469 211.085938 115.785156 C 211.25 114.339844 211.992188 113.050781 213.105469 112.207031 C 213.300781 110.285156 213.578125 107.632812 213.886719 104.671875 C 198.726562 106.960938 182.730469 105.445312 171.640625 103.679688 L 171.210938 107.644531 C 172.09375 108.71875 172.558594 110.121094 172.394531 111.566406 C 172.25 112.917969 171.609375 114.125 170.601562 114.980469 C 169.558594 115.867188 168.242188 116.269531 166.890625 116.136719 C 164.160156 115.835938 162.191406 113.300781 162.5 110.472656 C 162.632812 109.210938 163.210938 108.066406 164.097656 107.230469 L 164.613281 102.421875 C 160.097656 101.535156 157.398438 100.800781 157.398438 100.800781 C 157.398438 100.800781 152.285156 125.664062 146.578125 152.246094 C 148.421875 148.324219 157.585938 148.117188 153.398438 164.433594 C 157.996094 159.730469 176.382812 141.285156 176.382812 141.285156 C 176.382812 141.285156 179.019531 138.996094 181.710938 142.496094 C 183.523438 145.300781 183.390625 146.148438 179.546875 150.070312 C 175.703125 153.992188 163.808594 165.921875 163.808594 165.921875 L 164.984375 167.128906 L 173.546875 158.613281 C 174.457031 157.707031 175.949219 157.777344 176.765625 158.78125 L 178.1875 160.511719 C 178.886719 161.359375 178.824219 162.597656 178.050781 163.363281 L 168.40625 173.132812 L 169.890625 174.488281 L 178.269531 165.960938 C 179.113281 165.09375 180.503906 165.125 181.308594 166.035156 L 182.082031 166.902344 C 182.949219 167.871094 182.925781 169.328125 182.042969 170.253906 L 172.632812 180.195312 L 171.714844 181.144531 C 199.324219 182.183594 223.894531 187.335938 223.894531 187.335938 C 223.894531 187.335938 225.152344 164.1875 228.328125 101.121094 C 226.019531 101.96875 223.628906 102.679688 221.195312 103.277344 Z M 187.371094 145.21875 C 186.800781 148.015625 184.566406 150.253906 182.0625 150.75 C 184.082031 149.222656 185.226562 147.066406 185.339844 144.929688 C 185.460938 142.773438 184.566406 140.730469 183.019531 139.398438 C 181.503906 138.046875 179.339844 137.4375 177.238281 137.851562 C 175.144531 138.261719 173.15625 139.675781 171.941406 141.90625 C 172.074219 139.347656 173.992188 136.839844 176.671875 135.878906 C 179.300781 134.886719 182.578125 135.433594 184.761719 137.40625 C 187 139.285156 188 142.464844 187.371094 145.21875 Z M 187.371094 145.21875 " fill-opacity="1" fill-rule="nonzero"/></g><g clip-path="url(#80d2740473)"><path fill="#404040" d="M 167.148438 113.917969 C 168.664062 114.082031 170.035156 112.917969 170.199219 111.328125 C 170.324219 110.160156 169.777344 109.089844 168.878906 108.53125 L 172.066406 79.203125 C 172.199219 78.324219 175.464844 57.839844 197.675781 60.265625 C 205.179688 61.078125 210.828125 64.03125 214.484375 69.035156 C 218.339844 74.308594 218.855469 80.636719 218.609375 82.347656 C 218.246094 84.835938 215.9375 106.644531 215.207031 113.578125 C 214.207031 113.929688 213.445312 114.855469 213.308594 116.035156 C 213.136719 117.632812 214.226562 119.058594 215.734375 119.222656 C 217.246094 119.386719 218.609375 118.222656 218.78125 116.632812 C 218.898438 115.621094 218.496094 114.683594 217.804688 114.082031 C 218.503906 107.457031 220.863281 85.175781 221.214844 82.75 C 221.453125 81.152344 221.347656 73.84375 216.578125 67.332031 C 212.476562 61.710938 206.210938 58.40625 197.964844 57.507812 C 173.269531 54.792969 169.488281 78.5625 169.445312 78.859375 L 166.230469 108.449219 C 165.425781 108.882812 164.828125 109.71875 164.714844 110.730469 C 164.539062 112.328125 165.632812 113.753906 167.148438 113.917969 Z M 167.148438 113.917969 " fill-opacity="1" fill-rule="nonzero"/></g><g fill="#000000" fill-opacity="1"><g transform="translate(26.206426, 253.261975)"><g><path d="M 9.6875 0.484375 C 7.550781 0.484375 5.582031 0.0625 3.78125 -0.78125 C 1.988281 -1.625 0.519531 -2.8125 -0.625 -4.34375 L 2.90625 -8.59375 C 4.75 -6.039062 6.960938 -4.765625 9.546875 -4.765625 C 13.003906 -4.765625 14.734375 -6.816406 14.734375 -10.921875 L 14.734375 -28.1875 L 2.859375 -28.1875 L 2.859375 -33.390625 L 20.9375 -33.390625 L 20.9375 -11.265625 C 20.9375 -7.347656 19.984375 -4.410156 18.078125 -2.453125 C 16.171875 -0.492188 13.375 0.484375 9.6875 0.484375 Z M 9.6875 0.484375 "/></g></g></g><g fill="#000000" fill-opacity="1"><g transform="translate(56.1126, 253.261975)"><g><path d="M 26.328125 0 L 19.515625 -9.78125 C 19.222656 -9.75 18.789062 -9.734375 18.21875 -9.734375 L 10.6875 -9.734375 L 10.6875 0 L 4.484375 0 L 4.484375 -33.390625 L 18.21875 -33.390625 C 21.113281 -33.390625 23.632812 -32.910156 25.78125 -31.953125 C 27.925781 -31.003906 29.570312 -29.640625 30.71875 -27.859375 C 31.863281 -26.078125 32.4375 -23.960938 32.4375 -21.515625 C 32.4375 -19.003906 31.820312 -16.84375 30.59375 -15.03125 C 29.375 -13.21875 27.617188 -11.863281 25.328125 -10.96875 L 33.015625 0 Z M 26.1875 -21.515625 C 26.1875 -23.640625 25.484375 -25.273438 24.078125 -26.421875 C 22.679688 -27.566406 20.632812 -28.140625 17.9375 -28.140625 L 10.6875 -28.140625 L 10.6875 -14.828125 L 17.9375 -14.828125 C 20.632812 -14.828125 22.679688 -15.40625 24.078125 -16.5625 C 25.484375 -17.726562 26.1875 -19.378906 26.1875 -21.515625 Z M 26.1875 -21.515625 "/></g></g></g><g fill="#000000" fill-opacity="1"><g transform="translate(95.748643, 253.261975)"><g><path d="M 35.15625 0 L 35.109375 -22.140625 L 24.140625 -3.8125 L 21.375 -3.8125 L 10.40625 -21.84375 L 10.40625 0 L 4.484375 0 L 4.484375 -33.390625 L 9.59375 -33.390625 L 22.84375 -11.265625 L 35.875 -33.390625 L 40.984375 -33.390625 L 41.03125 0 Z M 35.15625 0 "/></g></g></g><g fill="#000000" fill-opacity="1"><g transform="translate(146.068449, 253.261975)"><g/></g></g><g fill="#000000" fill-opacity="1"><g transform="translate(164.00308, 253.261975)"><g><path d="M 14.828125 0.484375 C 12.253906 0.484375 9.765625 0.117188 7.359375 -0.609375 C 4.960938 -1.347656 3.066406 -2.320312 1.671875 -3.53125 L 3.8125 -8.34375 C 5.1875 -7.257812 6.863281 -6.375 8.84375 -5.6875 C 10.832031 -5.007812 12.828125 -4.671875 14.828125 -4.671875 C 17.316406 -4.671875 19.171875 -5.066406 20.390625 -5.859375 C 21.617188 -6.660156 22.234375 -7.710938 22.234375 -9.015625 C 22.234375 -9.972656 21.890625 -10.757812 21.203125 -11.375 C 20.515625 -12 19.644531 -12.484375 18.59375 -12.828125 C 17.550781 -13.179688 16.125 -13.582031 14.3125 -14.03125 C 11.769531 -14.632812 9.707031 -15.238281 8.125 -15.84375 C 6.550781 -16.445312 5.203125 -17.390625 4.078125 -18.671875 C 2.953125 -19.960938 2.390625 -21.707031 2.390625 -23.90625 C 2.390625 -25.75 2.890625 -27.425781 3.890625 -28.9375 C 4.890625 -30.445312 6.398438 -31.644531 8.421875 -32.53125 C 10.441406 -33.425781 12.914062 -33.875 15.84375 -33.875 C 17.875 -33.875 19.875 -33.617188 21.84375 -33.109375 C 23.820312 -32.597656 25.523438 -31.863281 26.953125 -30.90625 L 25 -26.09375 C 23.53125 -26.945312 22 -27.597656 20.40625 -28.046875 C 18.820312 -28.492188 17.285156 -28.71875 15.796875 -28.71875 C 13.335938 -28.71875 11.507812 -28.300781 10.3125 -27.46875 C 9.125 -26.644531 8.53125 -25.550781 8.53125 -24.1875 C 8.53125 -23.226562 8.875 -22.445312 9.5625 -21.84375 C 10.25 -21.238281 11.113281 -20.757812 12.15625 -20.40625 C 13.207031 -20.0625 14.640625 -19.664062 16.453125 -19.21875 C 18.929688 -18.644531 20.96875 -18.046875 22.5625 -17.421875 C 24.15625 -16.804688 25.515625 -15.863281 26.640625 -14.59375 C 27.765625 -13.320312 28.328125 -11.601562 28.328125 -9.4375 C 28.328125 -7.59375 27.828125 -5.921875 26.828125 -4.421875 C 25.828125 -2.929688 24.304688 -1.738281 22.265625 -0.84375 C 20.234375 0.0390625 17.753906 0.484375 14.828125 0.484375 Z M 14.828125 0.484375 "/></g></g></g><g fill="#000000" fill-opacity="1"><g transform="translate(198.774188, 253.261975)"><g><path d="M 11.265625 -28.140625 L 0.1875 -28.140625 L 0.1875 -33.390625 L 28.53125 -33.390625 L 28.53125 -28.140625 L 17.453125 -28.140625 L 17.453125 0 L 11.265625 0 Z M 11.265625 -28.140625 "/></g></g></g><g fill="#000000" fill-opacity="1"><g transform="translate(232.257516, 253.261975)"><g><path d="M 20.078125 0.484375 C 16.679688 0.484375 13.613281 -0.253906 10.875 -1.734375 C 8.144531 -3.210938 6 -5.265625 4.4375 -7.890625 C 2.875 -10.515625 2.09375 -13.453125 2.09375 -16.703125 C 2.09375 -19.941406 2.875 -22.875 4.4375 -25.5 C 6 -28.125 8.144531 -30.175781 10.875 -31.65625 C 13.613281 -33.132812 16.679688 -33.875 20.078125 -33.875 C 23.484375 -33.875 26.550781 -33.132812 29.28125 -31.65625 C 32.019531 -30.175781 34.164062 -28.128906 35.71875 -25.515625 C 37.28125 -22.910156 38.0625 -19.972656 38.0625 -16.703125 C 38.0625 -13.421875 37.28125 -10.472656 35.71875 -7.859375 C 34.164062 -5.253906 32.019531 -3.210938 29.28125 -1.734375 C 26.550781 -0.253906 23.484375 0.484375 20.078125 0.484375 Z M 20.078125 -4.96875 C 22.304688 -4.96875 24.3125 -5.46875 26.09375 -6.46875 C 27.875 -7.46875 29.269531 -8.863281 30.28125 -10.65625 C 31.300781 -12.457031 31.8125 -14.472656 31.8125 -16.703125 C 31.8125 -18.921875 31.300781 -20.925781 30.28125 -22.71875 C 29.269531 -24.519531 27.875 -25.921875 26.09375 -26.921875 C 24.3125 -27.929688 22.304688 -28.4375 20.078125 -28.4375 C 17.859375 -28.4375 15.859375 -27.929688 14.078125 -26.921875 C 12.296875 -25.921875 10.894531 -24.519531 9.875 -22.71875 C 8.851562 -20.925781 8.34375 -18.921875 8.34375 -16.703125 C 8.34375 -14.472656 8.851562 -12.457031 9.875 -10.65625 C 10.894531 -8.863281 12.296875 -7.46875 14.078125 -6.46875 C 15.859375 -5.46875 17.859375 -4.96875 20.078125 -4.96875 Z M 20.078125 -4.96875 "/></g></g></g><g fill="#000000" fill-opacity="1"><g transform="translate(277.187749, 253.261975)"><g><path d="M 26.328125 0 L 19.515625 -9.78125 C 19.222656 -9.75 18.789062 -9.734375 18.21875 -9.734375 L 10.6875 -9.734375 L 10.6875 0 L 4.484375 0 L 4.484375 -33.390625 L 18.21875 -33.390625 C 21.113281 -33.390625 23.632812 -32.910156 25.78125 -31.953125 C 27.925781 -31.003906 29.570312 -29.640625 30.71875 -27.859375 C 31.863281 -26.078125 32.4375 -23.960938 32.4375 -21.515625 C 32.4375 -19.003906 31.820312 -16.84375 30.59375 -15.03125 C 29.375 -13.21875 27.617188 -11.863281 25.328125 -10.96875 L 33.015625 0 Z M 26.1875 -21.515625 C 26.1875 -23.640625 25.484375 -25.273438 24.078125 -26.421875 C 22.679688 -27.566406 20.632812 -28.140625 17.9375 -28.140625 L 10.6875 -28.140625 L 10.6875 -14.828125 L 17.9375 -14.828125 C 20.632812 -14.828125 22.679688 -15.40625 24.078125 -16.5625 C 25.484375 -17.726562 26.1875 -19.378906 26.1875 -21.515625 Z M 26.1875 -21.515625 "/></g></g></g><g fill="#000000" fill-opacity="1"><g transform="translate(316.823786, 253.261975)"><g><path d="M 29.53125 -5.203125 L 29.53125 0 L 4.484375 0 L 4.484375 -33.390625 L 28.859375 -33.390625 L 28.859375 -28.1875 L 10.6875 -28.1875 L 10.6875 -19.515625 L 26.8125 -19.515625 L 26.8125 -14.40625 L 10.6875 -14.40625 L 10.6875 -5.203125 Z M 29.53125 -5.203125 "/></g></g></g><g fill="#404040" fill-opacity="1"><g transform="translate(67.093865, 280.973617)"><g><path d="M 4.921875 -2.96875 L 5.8125 -2.96875 L 5.8125 -0.734375 C 5.5 -0.503906 5.128906 -0.316406 4.703125 -0.171875 C 4.285156 -0.0234375 3.875 0.046875 3.46875 0.046875 C 2.570312 0.046875 1.816406 -0.242188 1.203125 -0.828125 C 0.597656 -1.421875 0.296875 -2.148438 0.296875 -3.015625 C 0.296875 -3.878906 0.601562 -4.601562 1.21875 -5.1875 C 1.84375 -5.769531 2.613281 -6.0625 3.53125 -6.0625 C 3.957031 -6.0625 4.375 -5.984375 4.78125 -5.828125 C 5.195312 -5.679688 5.550781 -5.476562 5.84375 -5.21875 L 5.265625 -4.46875 C 4.773438 -4.925781 4.195312 -5.15625 3.53125 -5.15625 C 2.914062 -5.15625 2.394531 -4.945312 1.96875 -4.53125 C 1.539062 -4.125 1.328125 -3.617188 1.328125 -3.015625 C 1.328125 -2.410156 1.539062 -1.898438 1.96875 -1.484375 C 2.394531 -1.078125 2.914062 -0.875 3.53125 -0.875 C 4 -0.875 4.460938 -1.007812 4.921875 -1.28125 Z M 4.921875 -2.96875 "/></g></g></g><g fill="#404040" fill-opacity="1"><g transform="translate(77.867971, 280.973617)"><g><path d="M 4.625 0 L 3.515625 -1.828125 C 3.460938 -1.816406 3.375 -1.8125 3.25 -1.8125 L 1.8125 -1.8125 L 1.8125 0 L 0.796875 0 L 0.796875 -6.03125 L 3.25 -6.03125 C 4.019531 -6.03125 4.613281 -5.847656 5.03125 -5.484375 C 5.457031 -5.128906 5.671875 -4.625 5.671875 -3.96875 C 5.671875 -3.488281 5.5625 -3.082031 5.34375 -2.75 C 5.132812 -2.414062 4.828125 -2.171875 4.421875 -2.015625 L 5.78125 0 Z M 1.8125 -2.734375 L 3.25 -2.734375 C 4.21875 -2.734375 4.703125 -3.140625 4.703125 -3.953125 C 4.703125 -4.734375 4.21875 -5.125 3.25 -5.125 L 1.8125 -5.125 Z M 1.8125 -2.734375 "/></g></g></g><g fill="#404040" fill-opacity="1"><g transform="translate(88.417788, 280.973617)"><g><path d="M 1.21875 -5.1875 C 1.832031 -5.769531 2.585938 -6.0625 3.484375 -6.0625 C 4.390625 -6.0625 5.148438 -5.769531 5.765625 -5.1875 C 6.378906 -4.601562 6.6875 -3.878906 6.6875 -3.015625 C 6.6875 -2.148438 6.378906 -1.421875 5.765625 -0.828125 C 5.148438 -0.242188 4.390625 0.046875 3.484375 0.046875 C 2.585938 0.046875 1.832031 -0.242188 1.21875 -0.828125 C 0.601562 -1.421875 0.296875 -2.148438 0.296875 -3.015625 C 0.296875 -3.878906 0.601562 -4.601562 1.21875 -5.1875 Z M 3.5 -5.15625 C 2.90625 -5.15625 2.394531 -4.945312 1.96875 -4.53125 C 1.539062 -4.125 1.328125 -3.617188 1.328125 -3.015625 C 1.328125 -2.421875 1.539062 -1.914062 1.96875 -1.5 C 2.394531 -1.082031 2.90625 -0.875 3.5 -0.875 C 4.09375 -0.875 4.597656 -1.082031 5.015625 -1.5 C 5.441406 -1.914062 5.65625 -2.421875 5.65625 -3.015625 C 5.65625 -3.617188 5.441406 -4.125 5.015625 -4.53125 C 4.597656 -4.945312 4.09375 -5.15625 3.5 -5.15625 Z M 3.5 -5.15625 "/></g></g></g><g fill="#404040" fill-opacity="1"><g transform="translate(99.718086, 280.973617)"><g><path d="M 5.921875 -6.03125 L 5.921875 -2.5 C 5.921875 -1.707031 5.6875 -1.082031 5.21875 -0.625 C 4.757812 -0.175781 4.117188 0.046875 3.296875 0.046875 C 2.484375 0.046875 1.84375 -0.175781 1.375 -0.625 C 0.90625 -1.082031 0.671875 -1.707031 0.671875 -2.5 L 0.671875 -6.03125 L 1.6875 -6.03125 L 1.6875 -2.5 C 1.6875 -2 1.832031 -1.601562 2.125 -1.3125 C 2.414062 -1.019531 2.8125 -0.875 3.3125 -0.875 C 3.800781 -0.875 4.1875 -1.015625 4.46875 -1.296875 C 4.757812 -1.585938 4.90625 -1.988281 4.90625 -2.5 L 4.90625 -6.03125 Z M 5.921875 -6.03125 "/></g></g></g><g fill="#404040" fill-opacity="1"><g transform="translate(110.621579, 280.973617)"><g><path d="M 0.796875 -6.03125 L 3.203125 -6.03125 C 3.960938 -6.03125 4.550781 -5.847656 4.96875 -5.484375 C 5.382812 -5.128906 5.59375 -4.625 5.59375 -3.96875 C 5.59375 -3.289062 5.382812 -2.757812 4.96875 -2.375 C 4.550781 -2 3.960938 -1.8125 3.203125 -1.8125 L 1.8125 -1.8125 L 1.8125 0 L 0.796875 0 Z M 1.8125 -5.125 L 1.8125 -2.734375 L 3.15625 -2.734375 C 4.125 -2.734375 4.609375 -3.140625 4.609375 -3.953125 C 4.609375 -4.734375 4.125 -5.125 3.15625 -5.125 Z M 1.8125 -5.125 "/></g></g></g><g fill="#404040" fill-opacity="1"><g transform="translate(120.740085, 280.973617)"><g/></g></g><g fill="#404040" fill-opacity="1"><g transform="translate(127.278721, 280.973617)"><g><path d="M 2.3125 0 L 1.296875 0 L 1.296875 -5.125 L 0.109375 -5.125 L 0.109375 -6.03125 L 2.3125 -6.03125 Z M 2.3125 0 "/></g></g></g><g fill="#404040" fill-opacity="1"><g transform="translate(134.930133, 280.973617)"><g/></g></g><g fill="#404040" fill-opacity="1"><g transform="translate(141.46877, 280.973617)"><g><path d="M 1.53125 1 L 0.78125 1 L 0.78125 -6.984375 L 1.53125 -6.984375 Z M 1.53125 1 "/></g></g></g><g fill="#404040" fill-opacity="1"><g transform="translate(148.102296, 280.973617)"><g/></g></g><g fill="#404040" fill-opacity="1"><g transform="translate(154.640933, 280.973617)"><g><path d="M 7 0 L 5.953125 0 L 4.53125 -4.703125 L 3.078125 0 L 2.03125 0 L 0.03125 -6.03125 L 1.125 -6.03125 L 2.59375 -1.125 L 4.046875 -6.03125 L 5.046875 -6.03125 L 6.515625 -1.125 L 7.96875 -6.03125 L 9.015625 -6.03125 Z M 7 0 "/></g></g></g><g fill="#404040" fill-opacity="1"><g transform="translate(167.890754, 280.973617)"><g><path d="M 5.109375 -5.125 L 1.8125 -5.125 L 1.8125 -3.5 L 4.765625 -3.5 L 4.765625 -2.578125 L 1.8125 -2.578125 L 1.8125 -0.921875 L 5.203125 -0.921875 L 5.203125 0 L 0.796875 0 L 0.796875 -6.03125 L 5.109375 -6.03125 Z M 5.109375 -5.125 "/></g></g></g><g fill="#404040" fill-opacity="1"><g transform="translate(177.86262, 280.973617)"><g><path d="M 0.796875 -6.03125 L 3.421875 -6.03125 C 4.046875 -6.03125 4.535156 -5.894531 4.890625 -5.625 C 5.253906 -5.363281 5.4375 -5 5.4375 -4.53125 C 5.4375 -4.1875 5.34375 -3.894531 5.15625 -3.65625 C 4.96875 -3.414062 4.707031 -3.257812 4.375 -3.1875 C 4.78125 -3.113281 5.097656 -2.941406 5.328125 -2.671875 C 5.554688 -2.398438 5.671875 -2.0625 5.671875 -1.65625 C 5.671875 -1.132812 5.472656 -0.726562 5.078125 -0.4375 C 4.691406 -0.144531 4.15625 0 3.46875 0 L 0.796875 0 Z M 1.8125 -5.125 L 1.8125 -3.53125 L 3.359375 -3.53125 C 3.679688 -3.53125 3.9375 -3.601562 4.125 -3.75 C 4.3125 -3.894531 4.40625 -4.09375 4.40625 -4.34375 C 4.40625 -4.59375 4.3125 -4.785156 4.125 -4.921875 C 3.945312 -5.054688 3.691406 -5.125 3.359375 -5.125 Z M 1.8125 -2.640625 L 1.8125 -0.90625 L 3.359375 -0.90625 C 3.765625 -0.90625 4.078125 -0.976562 4.296875 -1.125 C 4.515625 -1.28125 4.625 -1.5 4.625 -1.78125 C 4.625 -2.050781 4.507812 -2.257812 4.28125 -2.40625 C 4.0625 -2.5625 3.753906 -2.640625 3.359375 -2.640625 Z M 1.8125 -2.640625 "/></g></g></g><g fill="#404040" fill-opacity="1"><g transform="translate(188.265797, 280.973617)"><g/></g></g><g fill="#404040" fill-opacity="1"><g transform="translate(194.804433, 280.973617)"><g><path d="M 0.796875 -6.03125 L 3.203125 -6.03125 C 3.960938 -6.03125 4.550781 -5.847656 4.96875 -5.484375 C 5.382812 -5.128906 5.59375 -4.625 5.59375 -3.96875 C 5.59375 -3.289062 5.382812 -2.757812 4.96875 -2.375 C 4.550781 -2 3.960938 -1.8125 3.203125 -1.8125 L 1.8125 -1.8125 L 1.8125 0 L 0.796875 0 Z M 1.8125 -5.125 L 1.8125 -2.734375 L 3.15625 -2.734375 C 4.125 -2.734375 4.609375 -3.140625 4.609375 -3.953125 C 4.609375 -4.734375 4.125 -5.125 3.15625 -5.125 Z M 1.8125 -5.125 "/></g></g></g><g fill="#404040" fill-opacity="1"><g transform="translate(204.922939, 280.973617)"><g><path d="M 4.625 0 L 3.515625 -1.828125 C 3.460938 -1.816406 3.375 -1.8125 3.25 -1.8125 L 1.8125 -1.8125 L 1.8125 0 L 0.796875 0 L 0.796875 -6.03125 L 3.25 -6.03125 C 4.019531 -6.03125 4.613281 -5.847656 5.03125 -5.484375 C 5.457031 -5.128906 5.671875 -4.625 5.671875 -3.96875 C 5.671875 -3.488281 5.5625 -3.082031 5.34375 -2.75 C 5.132812 -2.414062 4.828125 -2.171875 4.421875 -2.015625 L 5.78125 0 Z M 1.8125 -2.734375 L 3.25 -2.734375 C 4.21875 -2.734375 4.703125 -3.140625 4.703125 -3.953125 C 4.703125 -4.734375 4.21875 -5.125 3.25 -5.125 L 1.8125 -5.125 Z M 1.8125 -2.734375 "/></g></g></g><g fill="#404040" fill-opacity="1"><g transform="translate(215.472757, 280.973617)"><g><path d="M 1.21875 -5.1875 C 1.832031 -5.769531 2.585938 -6.0625 3.484375 -6.0625 C 4.390625 -6.0625 5.148438 -5.769531 5.765625 -5.1875 C 6.378906 -4.601562 6.6875 -3.878906 6.6875 -3.015625 C 6.6875 -2.148438 6.378906 -1.421875 5.765625 -0.828125 C 5.148438 -0.242188 4.390625 0.046875 3.484375 0.046875 C 2.585938 0.046875 1.832031 -0.242188 1.21875 -0.828125 C 0.601562 -1.421875 0.296875 -2.148438 0.296875 -3.015625 C 0.296875 -3.878906 0.601562 -4.601562 1.21875 -5.1875 Z M 3.5 -5.15625 C 2.90625 -5.15625 2.394531 -4.945312 1.96875 -4.53125 C 1.539062 -4.125 1.328125 -3.617188 1.328125 -3.015625 C 1.328125 -2.421875 1.539062 -1.914062 1.96875 -1.5 C 2.394531 -1.082031 2.90625 -0.875 3.5 -0.875 C 4.09375 -0.875 4.597656 -1.082031 5.015625 -1.5 C 5.441406 -1.914062 5.65625 -2.421875 5.65625 -3.015625 C 5.65625 -3.617188 5.441406 -4.125 5.015625 -4.53125 C 4.597656 -4.945312 4.09375 -5.15625 3.5 -5.15625 Z M 3.5 -5.15625 "/></g></g></g><g fill="#404040" fill-opacity="1"><g transform="translate(226.773054, 280.973617)"><g><path d="M 4.921875 -2.96875 L 5.8125 -2.96875 L 5.8125 -0.734375 C 5.5 -0.503906 5.128906 -0.316406 4.703125 -0.171875 C 4.285156 -0.0234375 3.875 0.046875 3.46875 0.046875 C 2.570312 0.046875 1.816406 -0.242188 1.203125 -0.828125 C 0.597656 -1.421875 0.296875 -2.148438 0.296875 -3.015625 C 0.296875 -3.878906 0.601562 -4.601562 1.21875 -5.1875 C 1.84375 -5.769531 2.613281 -6.0625 3.53125 -6.0625 C 3.957031 -6.0625 4.375 -5.984375 4.78125 -5.828125 C 5.195312 -5.679688 5.550781 -5.476562 5.84375 -5.21875 L 5.265625 -4.46875 C 4.773438 -4.925781 4.195312 -5.15625 3.53125 -5.15625 C 2.914062 -5.15625 2.394531 -4.945312 1.96875 -4.53125 C 1.539062 -4.125 1.328125 -3.617188 1.328125 -3.015625 C 1.328125 -2.410156 1.539062 -1.898438 1.96875 -1.484375 C 2.394531 -1.078125 2.914062 -0.875 3.53125 -0.875 C 4 -0.875 4.460938 -1.007812 4.921875 -1.28125 Z M 4.921875 -2.96875 "/></g></g></g><g fill="#404040" fill-opacity="1"><g transform="translate(237.54716, 280.973617)"><g><path d="M 4.625 0 L 3.515625 -1.828125 C 3.460938 -1.816406 3.375 -1.8125 3.25 -1.8125 L 1.8125 -1.8125 L 1.8125 0 L 0.796875 0 L 0.796875 -6.03125 L 3.25 -6.03125 C 4.019531 -6.03125 4.613281 -5.847656 5.03125 -5.484375 C 5.457031 -5.128906 5.671875 -4.625 5.671875 -3.96875 C 5.671875 -3.488281 5.5625 -3.082031 5.34375 -2.75 C 5.132812 -2.414062 4.828125 -2.171875 4.421875 -2.015625 L 5.78125 0 Z M 1.8125 -2.734375 L 3.25 -2.734375 C 4.21875 -2.734375 4.703125 -3.140625 4.703125 -3.953125 C 4.703125 -4.734375 4.21875 -5.125 3.25 -5.125 L 1.8125 -5.125 Z M 1.8125 -2.734375 "/></g></g></g><g fill="#404040" fill-opacity="1"><g transform="translate(248.096978, 280.973617)"><g><path d="M 4.6875 -1.359375 L 1.640625 -1.359375 L 1.0625 0 L 0.015625 0 L 2.671875 -6.03125 L 3.71875 -6.03125 L 6.359375 0 L 5.265625 0 Z M 4.296875 -2.265625 L 3.171875 -4.953125 L 2.03125 -2.265625 Z M 4.296875 -2.265625 "/></g></g></g><g fill="#404040" fill-opacity="1"><g transform="translate(258.776205, 280.973617)"><g><path d="M 7.171875 0 L 6.234375 0 L 6.234375 -4.515625 L 4.328125 -0.625 L 3.65625 -0.625 L 1.75 -4.515625 L 1.75 0 L 0.796875 0 L 0.796875 -6.03125 L 2 -6.03125 L 4 -2.03125 L 5.984375 -6.03125 L 7.171875 -6.03125 Z M 7.171875 0 "/></g></g></g><g fill="#404040" fill-opacity="1"><g transform="translate(271.068535, 280.973617)"><g><path d="M 7.171875 0 L 6.234375 0 L 6.234375 -4.515625 L 4.328125 -0.625 L 3.65625 -0.625 L 1.75 -4.515625 L 1.75 0 L 0.796875 0 L 0.796875 -6.03125 L 2 -6.03125 L 4 -2.03125 L 5.984375 -6.03125 L 7.171875 -6.03125 Z M 7.171875 0 "/></g></g></g><g fill="#404040" fill-opacity="1"><g transform="translate(283.360865, 280.973617)"><g><path d="M 1.8125 0 L 0.796875 0 L 0.796875 -6.03125 L 1.8125 -6.03125 Z M 1.8125 0 "/></g></g></g><g fill="#404040" fill-opacity="1"><g transform="translate(290.279051, 280.973617)"><g><path d="M 6.03125 0 L 5.03125 0 L 1.8125 -4.328125 L 1.8125 0 L 0.796875 0 L 0.796875 -6.03125 L 1.796875 -6.03125 L 5.03125 -1.703125 L 5.03125 -6.03125 L 6.03125 -6.03125 Z M 6.03125 0 "/></g></g></g><g fill="#404040" fill-opacity="1"><g transform="translate(301.424097, 280.973617)"><g><path d="M 4.921875 -2.96875 L 5.8125 -2.96875 L 5.8125 -0.734375 C 5.5 -0.503906 5.128906 -0.316406 4.703125 -0.171875 C 4.285156 -0.0234375 3.875 0.046875 3.46875 0.046875 C 2.570312 0.046875 1.816406 -0.242188 1.203125 -0.828125 C 0.597656 -1.421875 0.296875 -2.148438 0.296875 -3.015625 C 0.296875 -3.878906 0.601562 -4.601562 1.21875 -5.1875 C 1.84375 -5.769531 2.613281 -6.0625 3.53125 -6.0625 C 3.957031 -6.0625 4.375 -5.984375 4.78125 -5.828125 C 5.195312 -5.679688 5.550781 -5.476562 5.84375 -5.21875 L 5.265625 -4.46875 C 4.773438 -4.925781 4.195312 -5.15625 3.53125 -5.15625 C 2.914062 -5.15625 2.394531 -4.945312 1.96875 -4.53125 C 1.539062 -4.125 1.328125 -3.617188 1.328125 -3.015625 C 1.328125 -2.410156 1.539062 -1.898438 1.96875 -1.484375 C 2.394531 -1.078125 2.914062 -0.875 3.53125 -0.875 C 4 -0.875 4.460938 -1.007812 4.921875 -1.28125 Z M 4.921875 -2.96875 "/></g></g></g></svg>